<svg width="40" height="25" viewBox="0 0 40 25" fill="none" xmlns="http://www.w3.org/2000/svg">
<path d="M25.4077 2.64378H14.5923V22.0773H25.4077V2.64378Z" fill="#FF5F00"/>
<path d="M15.279 12.3605C15.279 8.41202 17.133 4.90987 19.9828 2.64378C17.8884 0.995712 15.2446 0 12.3605 0C5.5279 0 0 5.5279 0 12.3605C0 19.1931 5.5279 24.721 12.3605 24.721C15.2446 24.721 17.8884 23.7253 19.9828 22.0773C17.133 19.8455 15.279 16.309 15.279 12.3605Z" fill="#EB001B"/>
<path d="M39.9999 12.3605C39.9999 19.1931 34.472 24.721 27.6394 24.721C24.7553 24.721 22.1115 23.7253 20.0171 22.0773C22.9012 19.8112 24.721 16.309 24.721 12.3605C24.721 8.41202 22.8669 4.90987 20.0171 2.64378C22.1115 0.995712 24.7553 0 27.6394 0C34.472 0 39.9999 5.56223 39.9999 12.3605Z" fill="#F79E1B"/>
</svg>
