<svg width="40" height="13" viewBox="0 0 40 13" fill="none" xmlns="http://www.w3.org/2000/svg">
<path fill-rule="evenodd" clip-rule="evenodd" d="M13.8834 6.50471C13.8834 10.0528 10.7993 12.9291 6.9948 12.9291C3.19016 12.9291 0.105957 10.0528 0.105957 6.50471C0.105957 2.95663 3.19016 0.0803576 6.9948 0.0803576C10.7993 0.0803576 13.8834 2.95663 13.8834 6.50471Z" fill="#ED342B"/>
<path fill-rule="evenodd" clip-rule="evenodd" d="M6.99464 9.25658C5.4538 5.99929 4.32402 2.95636 4.32402 2.95636H1.96191C1.96191 2.95636 3.3996 6.86197 6.07014 11.7462H7.91915C10.5897 6.86197 12.0273 2.95636 12.0273 2.95636H9.66518C9.66518 2.95636 8.53549 5.99929 6.99464 9.25658Z" fill="#FEFEFE"/>
<path fill-rule="evenodd" clip-rule="evenodd" d="M36.6614 6.16965C35.3261 6.16965 35.2236 7.5107 35.2236 7.5107L38.099 7.5107C38.099 7.5107 37.9965 6.16965 36.6614 6.16965ZM39.8451 8.8515H35.2236C35.2236 8.8515 35.3261 10.2884 37.3804 10.2884C38.4073 10.2884 39.4343 10.0008 39.4343 10.0008L39.6399 11.5333C39.6399 11.5333 38.6128 11.9166 37.1749 11.9166C35.1208 11.9166 33.2722 10.9587 33.2722 8.27686C33.2722 6.16965 34.7101 4.82869 36.7641 4.82869C39.8451 4.82869 40.0504 7.70214 39.8451 8.8515ZM24.13 6.58833L24.4481 5.00686C24.4481 5.00686 21.9925 4.31196 19.9966 5.59974V11.9256H22.1163V6.78582C22.9641 6.19302 24.13 6.58833 24.13 6.58833ZM15.2949 6.16965C13.9598 6.16965 13.8572 7.5107 13.8572 7.5107H16.7327C16.7327 7.5107 16.6302 6.16965 15.2949 6.16965ZM18.4786 8.8515H13.8572C13.8572 8.8515 13.9598 10.2884 16.0138 10.2884C17.0406 10.2884 18.0678 10.0008 18.0678 10.0008L18.2733 11.5333C18.2733 11.5333 17.2462 11.9166 15.8083 11.9166C13.7543 11.9166 11.9055 10.9587 11.9055 8.27686C11.9055 6.16965 13.3435 4.82869 15.3975 4.82869C18.4786 4.82869 18.6838 7.70214 18.4786 8.8515ZM29.3028 9.50792C28.2265 7.09871 27.6886 4.82985 27.6886 4.82985L25.5364 4.83009C25.5364 4.83009 26.6127 8.7048 28.4423 11.9154L30.1634 11.9154C31.9931 8.7048 33.0693 4.83066 33.0693 4.83066H30.9171C30.9171 4.83066 30.3791 7.09871 29.3028 9.50792Z" fill="#03435F"/>
</svg>
