<svg width="34" height="12" viewBox="0 0 34 12" fill="none" xmlns="http://www.w3.org/2000/svg">
<path d="M14.7617 11.279H12.0148L13.7316 0.728361H16.4787L14.7617 11.279ZM9.70396 0.728361L7.08521 7.98516L6.77533 6.42249L6.77561 6.42305L5.85133 1.67832C5.85133 1.67832 5.73957 0.728361 4.54831 0.728361H0.219013L0.168213 0.907008C0.168213 0.907008 1.49212 1.18246 3.04152 2.11295L5.428 11.2793H8.29002L12.6602 0.728361H9.70396ZM31.3095 11.279H33.8317L31.6327 0.728079H29.4246C28.4049 0.728079 28.1565 1.51435 28.1565 1.51435L24.0598 11.279H26.9232L27.4958 9.71179H30.9878L31.3095 11.279ZM28.2869 7.54686L29.7302 3.59857L30.5422 7.54686H28.2869ZM24.2746 3.26554L24.6666 0.999859C24.6666 0.999859 23.457 0.539837 22.196 0.539837C20.8328 0.539837 17.5958 1.13561 17.5958 4.03263C17.5958 6.75833 21.395 6.7922 21.395 8.22392C21.395 9.65563 17.9872 9.39909 16.8625 8.49626L16.4542 10.8652C16.4542 10.8652 17.6807 11.461 19.5547 11.461C21.4292 11.461 24.2571 10.4904 24.2571 7.84884C24.2571 5.10564 20.4236 4.85023 20.4236 3.65755C20.4239 2.4646 23.0991 2.61784 24.2746 3.26554Z" fill="#2566AF"/>
<path d="M6.77561 6.42277L5.85133 1.67804C5.85133 1.67804 5.73957 0.728079 4.54831 0.728079H0.219013L0.168213 0.906726C0.168213 0.906726 2.24904 1.33796 4.24492 2.95369C6.15331 4.49801 6.77561 6.42277 6.77561 6.42277Z" fill="#E6A540"/>
</svg>
